<?xml version="1.0" encoding="UTF-8"?>
<svg id="Layer_1" xmlns="http://www.w3.org/2000/svg" version="1.1" viewBox="0 0 31.2 31.7">
  <!-- Generator: Adobe Illustrator 30.7.0, SVG Export Plug-In . SVG Version: 2.1.4 Build 40)  -->
  <defs>
    <style>
      .st0 {
        fill: #2e403a;
      }
    </style>
  </defs>
  <path class="st0" d="M22.5,10.2c0,.2.2.3.4.3s.3,0,.3-.3-.2-.3-.4-.3-.3,0-.3.3Z"/>
  <path class="st0" d="M18.8,17.6c.2,0,.4-.2.4-.5s-.1-.3-.3-.3-.4.1-.4.4.1.4.3.4Z"/>
  <path class="st0" d="M17.9,19.7c-.4,0-.5-.3-.5-.7,0-.8.5-2,.5-2.5s-.2-.4-.4-.4-.4,0-.6,0c-.3,0-.3-.5-.7-.5-.9,0-1.2,1.3-1.5,1.4-.3-.2-.6-.3-.8-.3s-.5.2-.5.6,0,.3,0,.4c-.3-.3-.4-.7-.9-.7,0,.7,1.9,2.5,2.4,3.1-.5-.2-2.3-2.2-2.7-2.8v.2c2.2,4.3,6.6,6.7,11,7.5l.3-.2c-2.4-1.2-4.5-1.1-6.4-3.3-.7-.8-1.5-2.4-1.5-3.4.1-.2.1-.1.2-.4,0,0,0,0,0-.1.7,4.4,3.3,5.2,7,6.4h.5c-1.7-1-4-1.1-4-3.8s0-.7.3-.9c0,.1.1.2.1.3,0,.3-.1.5-.1.7,0,1.2.6,2.4,1.9,2.4l1.8.6c0,0,.1,0,.1-.1-.3-.3-.6-.4-1-.5,0-.2.2-.3.4-.3s.3,0,.4,0c.1,0,.1-.1.1-.3,0-.4-.3-1.1-.5-1.1-.7,0-.1,1.2-.9,1.2s-.4-.4-.5-.7c.2-.6,0-1.3.4-2-.3-.6-.4-.8-.6-.8s-.3.3-.8.3-.5-1.1-1.1-1.1c-.9,0-.9,1.7-1.5,1.7ZM20.8,19.5v1.6c-.4-.3-.4-.4-.4-.7s0-.7.4-.9ZM19.8,22.5h-.1c-.7-.4-1.4-1.7-1.4-2.5h.1c.3.3.3.8.5,1.1.3.5.6.8.9,1.4Z"/>
  <path class="st0" d="M22.5,11.1c-.1,0-.3,0-.3.3,0,.2.2.3.3.3.2,0,.3-.2.3-.3s-.1-.3-.3-.3Z"/>
  <path class="st0" d="M20.2,14.7c-.2,0-.4.1-.4.4s.3.3.5.3.4,0,.4-.3-.2-.3-.4-.3Z"/>
  <path class="st0" d="M7.2,30.9c.2.1.4.2.7.2.6,0,1.2-.4,1.8-.4,1.1,0,1.8.8,4.2.8.1,0,.3-.1.4-.2-.7-.4-1.6-.6-2.4-.9-.1-.6-.4-.7-.8-.7s-.5,0-.8,0c-.5,0,0-1.6-1.2-1.6s-1.3,1.8-1.9,1.8-.4-.1-.4-.2c0-.3,1.1-.9,1.2-1.4v-.4c0-.3-1.4-1.3-1.7-1.3-.7,0-.5.8-1,.8s-.3,0-.4,0h-.2c-.3,0-.7.3-.7.6,0,.6.6.4.7,1.1,0,.1,0,.5-.3.5s-.6-1-1.7-1-1.1.4-1.1.7.3.5.9.5c.1-.1.3-.3.4-.4.2,0,.3.4.4.5,0,.3-.6.7-1.2.7s-1.4-.4-1.4-1.8,1-2.2,1-2.7-.2-.5-.2-.9,0-.3.2-.3c.4,0,.4.6.8.6.6,0,1.2-2.3,1.2-2.2,0-1-2.1,0-2.1-1.4s.3-.7.5-.7c.7,0,.5.9.9.9s.7-.3.7-.7c0-.8.5-.8.5-1.4s-.4-.6-.4-.8c.3-.7.4-.9.4-1.2s-.1-.5-.3-1.3c0-.1.2-.6.2-.8,0-.1,0-.4-.3-.4s-.9,1-1.2,1-.3-.2-.3-.7c0-.9.7-.5,1-1.6,0-.2.2-.4.2-.6,0-.5-.6-.4-.6-.9s.5-.9.5-1.4-.4-.9-.8-.9c-.7,0-.3,1.2-.8,1.2s-.4-.5-.4-.7.5-1.5.5-2.2,0-.4-.3-.4c-.6,0-1.2,2.4-1.2,3.1s0,.4.1.6c.9,0,.3,1.5,1.1,1.5s.7-.3.9-.3,0,0,0,.1c-1,1-1,1.6-1,2.4s0,1,.4,1.7c0,.5.9.9.9,1.2h-.1c-.4.1-.8-.8-1.2-.8,0,.3,0,.5,0,.7v1c0,.8-.3,1.8-.3,2.6s1,1,1.1,1.8l-1.1-.6c-.6,1.4-.7,3-1.2,4.4,0,.2-.1.4-.1.5,0,1.2.3,2.9,1.9,2.9s2.3-.7,3-.7,1,.1,1.4.1c.8,0,1.5-.2,2.4-.9,0,.9-1,.9-1.6,1.3ZM5.2,30.2h-.1c0-.5.4-2,.9-2,0,.1,0,.2,0,.3,0,.6-.4,1.4-.8,1.8Z"/>
  <path class="st0" d="M28.9,30.9h.1c-.1-.5-.8-2.5-1.3-2.5s-.8.6-.8.8c0,.5.9.5.9,1.4s0,.3-.2.3c-1,0-.8-.9-1.9-.9s-1.7,1.1-1.7,1.4.2.3.4.3c.5,0,1.3-.3,1.5-.4.3,0,1.1.3,1.7.3s.7-.1.7-.6c0-.8-.9-1.5-.9-1.8h0c.7.4,1.1,1.1,1.5,1.7Z"/>
  <path class="st0" d="M30.8,24.7c-.2.3-.8.7-.8,1.1v.5c0,.5,0,1-.4,1s-.4-.4-.6-.4c-.2.2-.7.6-.8.8.7,1.1,1.3,2.2,1.7,3.3v-.2c0-.7-.3-2.4-.3-2.9v-.2c.9,1.1.7,2.2,1.1,3.3h.1c.2-.2.2-.5.2-.8,0-1.3-.5-1.9-.5-2.6s.6-1.7.6-2.2-.1-.5-.4-.7Z"/>
  <path class="st0" d="M.5,24.3c.4-.5.5-1.3.5-2,0-1.5.4-2,.4-3.1s-.1-1.1-.1-1.7,0-.6.1-.9v-.5c-.1,0-.1-.2-.1-.2,0-.9-.3-3.4-.7-3.7v.8c.2.5.4,1.8.4,2.7,0,2.2-.6,5.7-.6,7.7s0,.7.1.9Z"/>
  <path class="st0" d="M.2,4.3c0,.5,1.1.8,1.5,1.1-.6.4-1,.4-1,.9s0,.3.1.6c0,.1,0,.3,0,.4,0,.2.2.2.5.4h.4c1.5,0,1.5-1.6,2.7-1.6s.9.1.9.5l-1.3,1.3c0,.3.3.4.8.4.9,0,2.2-.4,2.5-.8-.1,0-.2-.1-.4-.1-.3,0-.6,0-.8,0s-.2,0-.3,0c.5-.5,1.2-.4,1.8-.7-.2-.5-1.2-1.1-1.8-1.1s-1,0-1.5,0-2.2,1.4-2.9,1.8c.6-.9,1.6-1.5,2.5-2h0c-.5-.3-1.3-.3-1.5-.9h.1c1.1.4,1.9.5,3.1.6,2.3.1,1.6.6,3.1,1.8l.2-.2c-.7-1.8-2.5-1.7-3.9-2.2-.4-.2-2.4-1.5-2.4-1.9h.1c1.3,1.4,2.8,1.7,4.6,2,1,.2,1.3,1.1,2,1.7,0,0,0-.1,0-.3,0-1.3-4.9-2.7-4.9-4.2.4.4,2.1,1.8,2.6,2,1.1.5,1.7.4,2.8,2.1h.1c0-2.1-3.5-1.8-3.5-4.5s.2-.4.3-.5c0,.1,0,.2,0,.3,0,.2,0,.4,0,.5,0,1.4,2.4,2,3.3,2.8.1.2.3.5.5.5v-.2c-.2-.4-.4-.9-.7-1.4h.1c.2.1.7,1.1,1,1.1s.2,0,.2-.2c0-.4-.5-1.4-.5-1.8s0-1.1.3-1.2c0,.3.3,2.6.8,2.6s.3-.3.3-.4c0-.3-.3-.5-.3-.8s0-.2,0-.3c.2.1.6.8.8.8s.1-.1.1-.3c0-.2,0-.5,0-.7s0-.3.1-.3.5.8.6.8,2-2,3.3-2,.3,0,.4,0c-.7.3-1.4.2-1.8.9h.2c1.1-.3,1.6-.2,2.7-.8.4,0,.7.3,1.1.4h0c-.4-.9-1.6-1.2-2.5-1.2s-1.2.1-1.6.3h-.8c-.5-.1-.8,1.2-1.4,1.2s-.5-1.1-1.1-1.1-.7.5-.9.5-.6-.6-.8-.6c-.5,0-.7.6-.7,1s.3.5.3.8-.1.3-.5.3c-.7,0-.5-1.3-.8-1.6-.2-.3-1.5-.8-1.8-.8-1.4,0-1.3,1.1-1.8,1.4l-.2-.3v-.4c0-.4-.7-.7-1.1-.7s-.4,0-.4.3,0,.2.1.4c0,.1-1,.4-1.2.4C1.6,1,1.1.3.7.3s-.3.2-.3.4,0,.4.1.5c0,.1-.1.2-.1.3,0,.6,1,1.3,1.4,1.5,0,.4-1.6.6-1.6,1.4Z"/>
  <path class="st0" d="M12.8,9.4c.9-1.3,4.3-3.9,6.9-4.2.1,0,1.1-.1,1.1-.3s-.6-.5-.8-.5c-.1.6-2.5.9-3,1,.3-.3,2.4-1,2.4-1.2,0-.4-.6-.6-.9-.6-.9,0-1.2,1-1.9,1s-.3-.5-.5-.5c-.7,0-.7.9-1.1,1.3-.1-.3,0-.7-.5-.7s-.8.4-.8.7c0,.3.2.6.2.9,0,.3-.5.9-.8.9s-.1-.7-.4-.7c-.5,0-1.5,1.4-1.6,1.8-.1.4,0,.8-.1,1.2,0,.7-.6,1.5-.6,2.2s0,.2,0,.3c1.4-2.8,1.6-4.2,2.2-4.3h0c-.5.5-1.6,4.5-2.4,5.2v.4c0,.3,0,.5.1.7.6-1.6,1.5-3.1,2.4-4.5ZM16.1,5c-.5,1.7-2.2,2.7-3.4,4.3h0c.6-1.3,2.6-3,3.5-4.3Z"/>
  <path class="st0" d="M18.2,15c-.1,0-.3.1-.3.4s.2.3.4.3.3-.1.3-.3-.2-.4-.4-.4Z"/>
  <path class="st0" d="M21.6,1.3c0-.1-.1-.3-.3-.3s-.3.1-.3.3c0,.2.1.3.3.3s.3,0,.3-.3Z"/>
  <path class="st0" d="M20.7.7c0-.3-.2-.4-.4-.4s-.3.1-.3.3c0,.3.1.4.3.4s.4-.1.4-.3Z"/>
  <path class="st0" d="M22.3,27c-1.2,0-3.4,1.2-4.1,1.2.8-.4,1.6-.9,2.4-1.2.5-.2,1.1-.3,1.5-.6,0,0-.1,0-.2,0-.7,0-2.7,1-3,1,.3-.5,1.5-.9,1.9-1.4-1.9-.8-3.2-1.2-4.8-1.2s-1.5,0-2.4.3h-.2c.7-.5,2-.7,3.2-.7,2.2,0,4.3,1.4,6.4,1.4s.3,0,.3-.2c-2.2-.3-3.5-1.1-5.5-1.9-2.1-.8-3.9-3.4-5.6-5.1.2.5,1.1,1.4,1.1,2s0,.1,0,.1c-.3-.1-.4-.4-.6-.5,0,0-.1.2-.2.2-.5,0-.9-.9-.9-2s.5-2.7,1.9-2.7l.9.4c.5,0,.8-.3.8-.6s-.5-.9-1.4-.9-.3,0-.5,0c0,0,.9-1,1.9-1s.5,1.2,1.9,1.2.2,0,.2-.1c0-.2-.2-.5-.2-.6,0,0,.1,0,.2,0,.4,0,1.4.4,1.7.5.2,0,1-.1,1.1-.4l-.3-.7c0-.2.2-.3.4-.3.4,0,1,.2,1.2.2.3,0,1.3-.2,1.3-.5,0-.9-1.6-.4-1.8-.8.1-.1.9-.8.9-.9,0-.3-.7-.7-1-.7-.3,0-.5.1-.7.2,0,0-.1-.1-.1-.1,0,0,0-.2.2-.6,0-.5-.3-.9-.5-.9s-.6.3-.7,1.1v.2c-1,0-1.4-.4-1.4-.8,0-.6.8-1.4,2-1.4s1,1.6,2.3,1.6h.1c.1,0,.4,0,.4-.2l-.4-.5c0-.1.1-.2.3-.2s.4,0,.5,0c.2,0,.3-.1.3-.4,0-.5-.3-1.2-.5-1.4,0,0-.1,0-.3,0-.7,0-1.3-.3-1.9-.3h-.6c-4,0-6.2,4.3-6.8,4.4v-.2c1.5-2,4.1-4.6,6.7-4.6h.4c.1,0,.2,0,.3,0,.3,0,1.1.3,1.6.3s.2,0,.3,0c-.3-.5-.7-1.1-1.4-1.1-3.4,0-8,3.8-9.5,6.8-.5,1.1-.8,2.2-1.4,3.2.2.8,0,1.8.4,2.6.3.7.8,1.3.9,2h0c0,.1-.5-.4-.5-.4-.4,0-.6.4-.6.8,0,1.9,1.8.9,1.8,1.8s-1,.8-1,1.1c0,.5.7.8.9,1.3.2.3.1,1.1.4,1.3.3.2,1.1,0,1.1.4s-.1.4-.1.6c0,.5.8.9,1.2.9,1.2,0,1.1-1.4,2-1.4.3,0,1.2.5,1.2.9-.4.3-1.5.3-1.5,1.1s.3.7.7.7.7-.1,1-.3c.3.1.5.5,1.1.5,1.2,0,1.6-.7,2.4-1.4.5,0,1.2-.6,1.2-.9s0-.2-.3-.2ZM18,12.4c-.6,0-1.1-.2-1.7-.2-1.8,0-2.5.8-3.9,1.7.7-1.2,2.4-2.1,3.9-2.1s1.3.1,1.9.5h-.1ZM19.5,7.3c.4,0,.8,0,1.2.1-.1.2-.3.3-.5.3-.4,0-.7-.1-1-.1-1.5,0-3.9,1.9-4.9,3h-.2c1.4-1.8,3.1-3.2,5.4-3.2ZM10.7,17.2c0-.3,0-.5,0-.8,0-2.7,2.7-6.1,5.7-6.1s1.5.3,2.3.8v.2c-.8-.2-1.5-.3-2.2-.3-1.5,0-2.7.5-4,1.8-.8,1.5-1.4,2.8-1.8,4.4ZM12.7,21.1c1.6.3,1.8.3,2.9,1.4h0c-.5.1-.8-.3-1.2-.5-.6-.4-1.3-.4-1.9-.8h.2ZM13.2,23.4c-.1,0-.2,0-.3,0,.3-.1.6-.3.9-.3.3,0,.6,0,1,0,.7,0,1.6,0,2.4.9-.1,0-.2.1-.3.1-.2,0-1.8-.7-3-.7s-.5,0-.7,0ZM17.1,25.7c-.8,0-1.5.2-2.3.4,0,0,0,0-.1,0h-.1c.6-.4,1.8-.7,2.8-.7s1.7.1,2.1.5c0,.1-.2.2-.4.2-.8,0-1.5-.4-2-.4Z"/>
  <path class="st0" d="M29.1,17.8h-.2c.9,1.1,1.5,2.4,1.6,3.7,0,.3,0,1.9.3,1.9s.3-.2.3-.3c0-.5,0-1.4,0-2.3s0-1.2-.2-1.5c-.1-.4-.7-.7-.7-1.1,0-.5.8-.3.8-1.1s0-.3,0-.5c0-.2,0-.3,0-.5s0-.8-.5-.8-.4.8-.9.8-.6-.6-.6-.8c0-.3.4-.7.8-.7s.5.2.7.2c.4,0,.5-.4.5-.8s0-.6-.1-.8c0,0,0,0-.1,0-.2,0-.4-.3-.4-.4,0-.3.4-.9.4-1.3s-.3-.3-.5-.3c-.5,0-1.5,1.4-1.5,1.9h0c.1,0,.3,0,.5,0s.4,0,.4.3c-.5.2-1,.2-1.4.5h.1c.2,0,.5,0,.8,0s.3,0,.4.1c-.7.6-1.6.6-2.4,1.2,0,.1.1.1.4.1h.3c.3,0,.7,0,.7.3-.7,0-1.4,0-1.9.3.4.2,2.7.4,2.7.9,0,0-.2.1-.3.1-.4,0-1.1-.3-1.5-.3s-.2,0-.2.2c.4.2,1.9.3,1.9.8s-.1.2-.2.2Z"/>
  <path class="st0" d="M29.9,23.5c0-.2,0-.4,0-.7,0-3.1-2.1-5.9-5.9-5.9h-.4c-.4,0-.8,0-.8-.5s1.4-.6,1.6-.7c2-.8,4.6-3.8,4.6-6.1,0-4.5-6.2-7.6-10.2-7.6s-5.4,1.4-7.2,2.7c-2.3,1.8-3.9,4-6.5,4s-1.4-.5-2.3-.5c-.1,0-.2,0-.2.2,2,2.8,2.3,4.9,2.3,8.1s-.3,7-2.4,10h.2c1.1-.7,2.2-1.1,3.1-1.1,3.2,0,5.7,5.5,13.7,5.5s9.3-4.3,10.2-7.6ZM15.4,29.6c-5.4-2.1-6-8.9-6-14s.5-9.4,4.3-11.4c1.6-.8,3.1-1.2,4.3-1.2,3.8,0,5.7,3.5,5.7,6.9s-1.3,5.9-3.5,5.9-.4,0-.7-.1c-.1,0-.3,0-.3.3,0,.5,1.3,1.3,1.8,1.6,1.3.8,2.3,2.2,2.9,3.5.3.7.4,1.5.4,2.4,0,3.6-2.3,6.7-6.2,6.7s-1.9-.2-2.9-.6Z"/>
  <path class="st0" d="M30.6.4c-.4,0-.9.4-1.2.6-.4-.5-.3-.8-1.1-.8s-.4,1.1-1,1.1-.1-1.1-1.4-1.1-1.2,1.2-1.5,1.2c-.3-.4-1.1-.9-1.6-.9s-.5.2-.5.8.3.7.9.8c0-.1,0-.7.2-.7.5,0-.1,1.3,1.1,1.3s1.2-1.9,1.4-2c0,1.2-.7,1.9-.7,2.3l.2.2c.9,0,3.2-1.6,4.3-2-.5.8-3.5,2.3-3.5,2.5h0c0,.1.1.1.1.1.8,0,1.6-.8,2.5-.8h.2c-.3.4-1.7,1.4-2.1,1.4,0,.8,2.4.7,2.4,1.2-.1,0-.3,0-.4,0s-.4,0-.6.2c.1.3.3.3.4.3h.3c.1,0,.2,0,.3.1-.2,0-.5.2-.6.4l.3.8c0,.6.8,1.1.8,1.5s0,.4.1.6h.1c0-.2.4-.7.4-.9,0-.4-.7-1.2-.7-1.4,0-.4.9-.5.9-.8v-.4c0-.1-.4-.3-.4-.5l.4-.5c0-.3-.2-.4-.4-.4-.3,0-.7.3-1,.3s-.5-.3-.5-.5c0-.4.2-.5.5-.5s.7.1.9.1.4,0,.4-.3c0-.7-.4-.8-.8-1.2.3-.5.9-.8.9-1.4s-.1-.6-.4-.6Z"/>
</svg>