<?xml version="1.0" encoding="UTF-8"?><svg id="Layer_2" xmlns="http://www.w3.org/2000/svg" viewBox="0 0 253.03 108.58"><defs><style>.cls-1{fill:#99b5ab;}.cls-2{fill:#2e403a;}</style></defs><g id="Layer_2-2"><path class="cls-1" d="M61.68,56.4c0,11.28-6.84,21.6-23.88,21.6h-.6l-28.56-.24c-4.56,0-5.76-1.44-5.76-3,0-1.2.84-2.4,1.08-3.12,2.52-6.48,3.6-15.36,3.6-24.72C7.56,30.12,4.2,11.64,0,1.92c0-.48,1.32-.72,3.6-.84,4.08-.24,14.28-1.08,23.16-1.08,5.88,0,11.16.36,13.8,1.44,7.32,3.24,10.68,9.48,10.68,16.2,0,4.44-1.44,9-4.2,13.08,8.88,4.32,14.64,15.36,14.64,25.68ZM26.4,10.56c-4.92,1.32-8.16,1.68-12,5.64-3.48,3.6-4.2,8.04-4.2,12.6v.96c0,2.04.36,4.08.84,6,1.08,4.68,4.68,6.24,8.76,6.24,4.44,0,9.48-1.92,12.48-3.84-1.92-1.68-2.64-3.36-2.64-4.8,0-3.12,3.84-5.16,8.76-5.16,1.8,0,3.72.24,5.64.84,2.64-3.36,4.08-7.8,4.08-12.12,0-5.4-2.4-10.56-7.8-13.08-1.68-.72-4.92-1.44-8.64-1.44-8.64,0-20.28,3.48-22.32,16.08l.36-.12c3.36-4.56,9.84-11.64,15.96-11.64,1.32,0,2.52.96,2.52,2.28,0,1.2-.96,1.32-1.8,1.56ZM12.24,50.52c-.72.12-1.68,3.48-1.68,7.32,0,3.6.84,7.44,3.48,9.6,3.72,3,10.32,4.56,17.16,4.56,8.04,0,16.44-2.16,20.64-6.72,3.24-3.48,4.92-8.52,4.92-13.56,0-7.56-3.72-15.36-11.28-19.32-5.52,7.08-17.4,16.08-33.24,18.12ZM39.36,30.12c-2.76,0-6.12,1.68-6.12,4.44,0,.72.24,1.56.84,2.4,3-1.44,5.4-3.6,8.04-6.12-.72-.48-1.68-.72-2.76-.72Z"/><path class="cls-1" d="M69.84,30.72c-3,0-3.96-2.04-3.96-3.24,0-1.8,2.16-3.84,4.08-3.84,1.92.12,3.72,1.2,3.84,3v.72c0,1.32-.72,3.12-3.24,3.36h-.72ZM71.04,78.36c-1.08,0-1.8-.6-1.8-1.92.12-.6.24-2.88.24-6,0-9.84-.84-28.32-2.52-29.76-.6-.48-1.08-1.08-1.08-1.56,0-.24.12-.36.6-.48,1.2-.12,2.04-.72,2.76-1.56,0,0,1.44-1.56,2.04-1.92.6-.36,1.32-.48,2.4-.48.48,0,.72.24.72.6,0,.96-.72,2.76-.96,4.2-.96,5.64-1.44,13.32-1.44,21.84,0,5.16.24,10.56.48,15.96,0,.72-.72,1.08-1.44,1.08Z"/><path class="cls-1" d="M112.2,63.72c0,11.04-6.48,14.76-16.32,14.76-5.04,0-10.2-.6-15-2.16-1.32-.48-1.8-3.12-1.8-7.2,0-13.32-.36-45.24-.72-62.76,0-1.68,1.2-2.28,3.12-2.28,1.32,0,2.88.24,4.8.6.6.12.72.36.72.6s-.24.72-.6,1.2c-3.96,7.08-4.92,14.52-4.92,21.12,0,3.72.36,7.08.6,9.96,0,.72.36,1.08.48,1.08s.24-.12.36-.36c1.56-1.44,4.2-1.92,6.72-1.92,2.76,0,5.52.6,7.08.96,10.08,2.88,15.48,15.84,15.48,26.4ZM90.12,39c-6,0-7.2,8.16-7.2,12.48s1.2,9.84,4.44,13.2c3.12,3.24,9.12,4.44,9.12,4.44l1.32.36c.36.12.84.36.84.96,0,1.08-.96,1.92-2.04,1.92-4.56,0-10.56-5.64-13.92-10.56.12,8.88,4.8,13.92,12,13.92,8.4,0,13.8-8.64,13.8-16.56,0-9.96-7.44-20.16-18.36-20.16Z"/><path class="cls-1" d="M115.56,3.96c0-.72.24-1.08.84-1.56l.6-.48c.12-.12.48-.12.84-.12,1.08,0,2.64.24,3.12.24.36,0,.96-.12,1.44-.12.84,0,1.32.36,1.32,1.2,0,.24-.12.96-.12.96-2.4,12.36-3,33.36-3,50.04,0,9.72.24,18,.48,22.08v.72c0,1.32-.36,1.8-.84,1.8-.84,0-1.8-1.2-1.92-2.16-.24-.96-.36-5.28-.6-11.4-.24-6.24-.36-14.28-.6-22.44,0,0-.96-33.72-1.56-38.76Z"/><path class="cls-1" d="M132.36,30.72c-3,0-3.96-2.04-3.96-3.24,0-1.8,2.16-3.84,4.08-3.84,1.92.12,3.72,1.2,3.84,3v.72c0,1.32-.72,3.12-3.24,3.36h-.72ZM133.56,78.36c-1.08,0-1.8-.6-1.8-1.92.12-.6.24-2.88.24-6,0-9.84-.84-28.32-2.52-29.76-.6-.48-1.08-1.08-1.08-1.56,0-.24.12-.36.6-.48,1.2-.12,2.04-.72,2.76-1.56,0,0,1.44-1.56,2.04-1.92.6-.36,1.32-.48,2.4-.48.48,0,.72.24.72.6,0,.96-.72,2.76-.96,4.2-.96,5.64-1.44,13.32-1.44,21.84,0,5.16.24,10.56.48,15.96,0,.72-.72,1.08-1.44,1.08Z"/><path class="cls-1" d="M159.24,78.24c-11.88,0-17.28-12.48-17.28-23.04,0-11.28,8.52-20.28,17.76-20.28h.96c9.12.6,16.92,5.88,16.92,23.28,0,10.08-7.56,20.04-18.36,20.04ZM159.84,42.6c-5.04,0-13.92,3.12-14.52,14.76v1.32c0,14.64,11.76,17.64,14.28,17.64,7.56,0,14.52-7.08,14.52-17.28,0-14.88-10.32-16.44-14.28-16.44Z"/><path class="cls-1" d="M190.68,102c0,1.08-5.64,4.92-8.28,4.92-.36,0-.72-.12-.96-.36,0-.48.12-1.08.24-1.56,1.44-8.76,1.68-18,1.68-26.88,0-6.96-.36-16.8-1.08-23.88-.48-5.04-1.2-10.08-1.2-15.24,0-.72.12-.96.36-1.2.24-.24.96-.48,1.32-.6,4.8-1.56,10.92-2.16,15.96-2.16,9.84,0,16.32,3.72,16.32,14.76s-5.4,24-15.48,26.76c-2.88.84-5.64,1.2-8.64,1.32-4.68.12-4.8,6.96-4.8,10.44,0,4.32.36,9.96,4.2,12.96,0,0,.36.24.36.72ZM201.48,43.08c0,.6-.48.84-.96,1.08-.12,0-.36,0-.6.12-4.2,1.08-6.6,1.32-9.84,4.56-3.12,3.48-4.32,10.44-4.32,14.76,0,4.56,1.56,11.28,7.68,11.28,10.56,0,17.88-10.56,17.88-20.64,0-8.04-5.76-16.44-13.8-16.44-7.2,0-10.44,6.48-12,13.92,3.36-4.92,9.36-10.56,13.92-10.56,1.08,0,2.04.84,2.04,1.92Z"/><path class="cls-1" d="M251.16,78.48c-1.08-.36-1.92-1.68-3.84-2.04-4.68,1.32-9.48,1.8-14.4,1.8-7.44,0-15.6-4.68-15.6-12.96,0-13.92,6.84-27.96,22.56-28.56h1.92c3,0,5.52.36,8.4.36.72,0,1.08.84,1.08,1.44,0,.12,0,.36-.12.6-1.8,5.76-2.64,11.04-2.64,17.16s.72,12.6,2.88,18.48c.24.72.6,1.56.6,2.28,0,.6-.24,1.32-.84,1.44ZM238.44,47.76c3.48,0,6.24,7.2,6.96,9.84v-3.48c-.12-4.68-.24-15.12-7.08-15.36-11.16.24-17.64,13.2-17.64,22.68,0,8.28,5.04,11.88,12.6,11.88,5.76,0,11.88-2.28,11.88-9.12,0-11.4-8.52-12.84-8.52-15.12,0-.84,1.08-1.32,1.8-1.32Z"/><path class="cls-2" d="M62.71,58.07c0,11.28-6.84,21.6-23.88,21.6h-.6l-28.56-.24c-4.56,0-5.76-1.44-5.76-3,0-1.2.84-2.4,1.08-3.12,2.52-6.48,3.6-15.36,3.6-24.72C8.59,31.79,5.23,13.31,1.03,3.59c0-.48,1.32-.72,3.6-.84,4.08-.24,14.28-1.08,23.16-1.08,5.88,0,11.16.36,13.8,1.44,7.32,3.24,10.68,9.48,10.68,16.2,0,4.44-1.44,9-4.2,13.08,8.88,4.32,14.64,15.36,14.64,25.68ZM27.43,12.23c-4.92,1.32-8.16,1.68-12,5.64-3.48,3.6-4.2,8.04-4.2,12.6v.96c0,2.04.36,4.08.84,6,1.08,4.68,4.68,6.24,8.76,6.24,4.44,0,9.48-1.92,12.48-3.84-1.92-1.68-2.64-3.36-2.64-4.8,0-3.12,3.84-5.16,8.76-5.16,1.8,0,3.72.24,5.64.84,2.64-3.36,4.08-7.8,4.08-12.12,0-5.4-2.4-10.56-7.8-13.08-1.68-.72-4.92-1.44-8.64-1.44-8.64,0-20.28,3.48-22.32,16.08l.36-.12c3.36-4.56,9.84-11.64,15.96-11.64,1.32,0,2.52.96,2.52,2.28,0,1.2-.96,1.32-1.8,1.56ZM13.27,52.19c-.72.12-1.68,3.48-1.68,7.32,0,3.6.84,7.44,3.48,9.6,3.72,3,10.32,4.56,17.16,4.56,8.04,0,16.44-2.16,20.64-6.72,3.24-3.48,4.92-8.52,4.92-13.56,0-7.56-3.72-15.36-11.28-19.32-5.52,7.08-17.4,16.08-33.24,18.12ZM40.39,31.79c-2.76,0-6.12,1.68-6.12,4.44,0,.72.24,1.56.84,2.4,3-1.44,5.4-3.6,8.04-6.12-.72-.48-1.68-.72-2.76-.72Z"/><path class="cls-2" d="M70.87,32.39c-3,0-3.96-2.04-3.96-3.24,0-1.8,2.16-3.84,4.08-3.84,1.92.12,3.72,1.2,3.84,3v.72c0,1.32-.72,3.12-3.24,3.36h-.72ZM72.07,80.03c-1.08,0-1.8-.6-1.8-1.92.12-.6.24-2.88.24-6,0-9.84-.84-28.32-2.52-29.76-.6-.48-1.08-1.08-1.08-1.56,0-.24.12-.36.6-.48,1.2-.12,2.04-.72,2.76-1.56,0,0,1.44-1.56,2.04-1.92.6-.36,1.32-.48,2.4-.48.48,0,.72.24.72.6,0,.96-.72,2.76-.96,4.2-.96,5.64-1.44,13.32-1.44,21.84,0,5.16.24,10.56.48,15.96,0,.72-.72,1.08-1.44,1.08Z"/><path class="cls-2" d="M113.23,65.39c0,11.04-6.48,14.76-16.32,14.76-5.04,0-10.2-.6-15-2.16-1.32-.48-1.8-3.12-1.8-7.2,0-13.32-.36-45.24-.72-62.76,0-1.68,1.2-2.28,3.12-2.28,1.32,0,2.88.24,4.8.6.6.12.72.36.72.6s-.24.72-.6,1.2c-3.96,7.08-4.92,14.52-4.92,21.12,0,3.72.36,7.08.6,9.96,0,.72.36,1.08.48,1.08s.24-.12.36-.36c1.56-1.44,4.2-1.92,6.72-1.92,2.76,0,5.52.6,7.08.96,10.08,2.88,15.48,15.84,15.48,26.4ZM91.15,40.67c-6,0-7.2,8.16-7.2,12.48s1.2,9.84,4.44,13.2c3.12,3.24,9.12,4.44,9.12,4.44l1.32.36c.36.12.84.36.84.96,0,1.08-.96,1.92-2.04,1.92-4.56,0-10.56-5.64-13.92-10.56.12,8.88,4.8,13.92,12,13.92,8.4,0,13.8-8.64,13.8-16.56,0-9.96-7.44-20.16-18.36-20.16Z"/><path class="cls-2" d="M116.59,5.63c0-.72.24-1.08.84-1.56l.6-.48c.12-.12.48-.12.84-.12,1.08,0,2.64.24,3.12.24.36,0,.96-.12,1.44-.12.84,0,1.32.36,1.32,1.2,0,.24-.12.96-.12.96-2.4,12.36-3,33.36-3,50.04,0,9.72.24,18,.48,22.08v.72c0,1.32-.36,1.8-.84,1.8-.84,0-1.8-1.2-1.92-2.16-.24-.96-.36-5.28-.6-11.4-.24-6.24-.36-14.28-.6-22.44,0,0-.96-33.72-1.56-38.76Z"/><path class="cls-2" d="M133.39,32.39c-3,0-3.96-2.04-3.96-3.24,0-1.8,2.16-3.84,4.08-3.84,1.92.12,3.72,1.2,3.84,3v.72c0,1.32-.72,3.12-3.24,3.36h-.72ZM134.59,80.03c-1.08,0-1.8-.6-1.8-1.92.12-.6.24-2.88.24-6,0-9.84-.84-28.32-2.52-29.76-.6-.48-1.08-1.08-1.08-1.56,0-.24.12-.36.6-.48,1.2-.12,2.04-.72,2.76-1.56,0,0,1.44-1.56,2.04-1.92.6-.36,1.32-.48,2.4-.48.48,0,.72.24.72.6,0,.96-.72,2.76-.96,4.2-.96,5.64-1.44,13.32-1.44,21.84,0,5.16.24,10.56.48,15.96,0,.72-.72,1.08-1.44,1.08Z"/><path class="cls-2" d="M160.27,79.91c-11.88,0-17.28-12.48-17.28-23.04,0-11.28,8.52-20.28,17.76-20.28h.96c9.12.6,16.92,5.88,16.92,23.28,0,10.08-7.56,20.04-18.36,20.04ZM160.87,44.27c-5.04,0-13.92,3.12-14.52,14.76v1.32c0,14.64,11.76,17.64,14.28,17.64,7.56,0,14.52-7.08,14.52-17.28,0-14.88-10.32-16.44-14.28-16.44Z"/><path class="cls-2" d="M191.71,103.66c0,1.08-5.64,4.92-8.28,4.92-.36,0-.72-.12-.96-.36,0-.48.12-1.08.24-1.56,1.44-8.76,1.68-18,1.68-26.88,0-6.96-.36-16.8-1.08-23.88-.48-5.04-1.2-10.08-1.2-15.24,0-.72.12-.96.36-1.2.24-.24.96-.48,1.32-.6,4.8-1.56,10.92-2.16,15.96-2.16,9.84,0,16.32,3.72,16.32,14.76s-5.4,24-15.48,26.76c-2.88.84-5.64,1.2-8.64,1.32-4.68.12-4.8,6.96-4.8,10.44,0,4.32.36,9.96,4.2,12.96,0,0,.36.24.36.72ZM202.51,44.75c0,.6-.48.84-.96,1.08-.12,0-.36,0-.6.12-4.2,1.08-6.6,1.32-9.84,4.56-3.12,3.48-4.32,10.44-4.32,14.76,0,4.56,1.56,11.28,7.68,11.28,10.56,0,17.88-10.56,17.88-20.64,0-8.04-5.76-16.44-13.8-16.44-7.2,0-10.44,6.48-12,13.92,3.36-4.92,9.36-10.56,13.92-10.56,1.08,0,2.04.84,2.04,1.92Z"/><path class="cls-2" d="M252.19,80.14c-1.08-.36-1.92-1.68-3.84-2.04-4.68,1.32-9.48,1.8-14.4,1.8-7.44,0-15.6-4.68-15.6-12.96,0-13.92,6.84-27.96,22.56-28.56h1.92c3,0,5.52.36,8.4.36.72,0,1.08.84,1.08,1.44,0,.12,0,.36-.12.6-1.8,5.76-2.64,11.04-2.64,17.16s.72,12.6,2.88,18.48c.24.72.6,1.56.6,2.28,0,.6-.24,1.32-.84,1.44ZM239.47,49.43c3.48,0,6.24,7.2,6.96,9.84v-3.48c-.12-4.68-.24-15.12-7.08-15.36-11.16.24-17.64,13.2-17.64,22.68,0,8.28,5.04,11.88,12.6,11.88,5.76,0,11.88-2.28,11.88-9.12,0-11.4-8.52-12.84-8.52-15.12,0-.84,1.08-1.32,1.8-1.32Z"/></g></svg>